# xmcd CD database file
#
# Track frame offsets:
#	150
#	14386
#	29125
#	44275
#	63682
#	78683
#	92149
#	107277
#	122927
#	134300
#	152408
#	165092
#	179954
#	193777
#	208208
#	231305
#	253467
#	282527
#
# Disc length: 4074 seconds
#
# Revision: 0
# Processed by: cddbd v1.5.2PL0 Copyright (c) Steve Scherf et al.
# Submitted via: CDex 1.70beta2
#
DISCID=120fe812
DTITLE=Cy Laurie - blows Blue Hot
DYEAR=1900
DGENRE=Jazz
TTITLE0=Got No Blues
TTITLE1=You're Next
TTITLE2=Jazz Lips
TTITLE3=Pearls
TTITLE4=Skid Dat De Dat
TTITLE5=Big Fat Ma and Skinny Pa
TTITLE6=Blues Mess Around
TTITLE7=King Of The Zulus
TTITLE8=Weatherbird Rag
TTITLE9=You're Next
TTITLE10=2.19 Blues
TTITLE11=Forty and Tight
TTITLE12=Once In A While
TTITLE13=Pleading The Blues
TTITLE14=Joe Turner's Blues
TTITLE15=Stockyard Strut
TTITLE16=King Of The Zulus
TTITLE17=Hyena Stomp
EXTD=
EXTT0=
EXTT1=
EXTT2=
EXTT3=
EXTT4=
EXTT5=
EXTT6=
EXTT7=
EXTT8=
EXTT9=
EXTT10=
EXTT11=
EXTT12=
EXTT13=
EXTT14=
EXTT15=
EXTT16=
EXTT17=
PLAYORDER=
